HIERARCHY
ROOT SpineBase
{
  OFFSET 0.000000 0.000000 0.000000
  CHANNELS 6 Xposition Yposition Zposition Zrotation Xrotation Yrotation
  JOINT SpineMid
  {
    OFFSET -0.000000 27.140157 0.000000
    CHANNELS 3 Zrotation Xrotation Yrotation
    JOINT SpineShoulder
    {
      OFFSET -0.023083 20.129722 -0.679095
      CHANNELS 3 Zrotation Xrotation Yrotation
      JOINT Neck
      {
        OFFSET -0.028401 6.662626 -0.528970
        CHANNELS 3 Zrotation Xrotation Yrotation
        JOINT Head
        {
          OFFSET 1.124235 12.423892 -0.374852
          CHANNELS 3 Zrotation Xrotation Yrotation
          End Site
          {
            OFFSET 0 0 0
          }
        }
      }
      JOINT ShoulderLeft
      {
        OFFSET -11.559694 -3.501399 -7.811301
        CHANNELS 3 Zrotation Xrotation Yrotation
        JOINT ElbowLeft
        {
          OFFSET -0.074887 -21.224208 -4.326936
          CHANNELS 3 Zrotation Xrotation Yrotation
          JOINT WristLeft
          {
            OFFSET 17.693891 -20.238583 -0.798907
            CHANNELS 3 Zrotation Xrotation Yrotation
            JOINT HandLeft
            {
              OFFSET 1.566817 -2.520507 0.651529
              CHANNELS 3 Zrotation Xrotation Yrotation
              JOINT HandTipLeft
              {
                OFFSET 1.237492 -3.293829 0.524574
                CHANNELS 3 Zrotation Xrotation Yrotation
                End Site
                {
                  OFFSET 0 0 0
                }
              }
              JOINT ThumbLeft
              {
                OFFSET -3.373330 -1.521219 -2.441667
                CHANNELS 3 Zrotation Xrotation Yrotation
                End Site
                {
                  OFFSET 0 0 0
                }
              }
            }
          }
        }
      }
      JOINT ShoulderRight
      {
        OFFSET 11.990796 -2.971426 2.928999
        CHANNELS 3 Zrotation Xrotation Yrotation
        JOINT ElbowRight
        {
          OFFSET 2.950857 -24.919855 -1.430188
          CHANNELS 3 Zrotation Xrotation Yrotation
          JOINT WristRight
          {
            OFFSET -2.904259 -17.856277 -13.083509
            CHANNELS 3 Zrotation Xrotation Yrotation
            JOINT HandRight
            {
              OFFSET -4.135062 -1.389854 -0.946492
              CHANNELS 3 Zrotation Xrotation Yrotation
              JOINT HandTipRight
              {
                OFFSET -1.853181 -2.491610 -1.329400
                CHANNELS 3 Zrotation Xrotation Yrotation
                End Site
                {
                  OFFSET 0 0 0
                }
              }
              JOINT ThumbRight
              {
                OFFSET -3.045710 0.347849 -2.779149
                CHANNELS 3 Zrotation Xrotation Yrotation
                End Site
                {
                  OFFSET 0 0 0
                }
              }
            }
          }
        }
      }
    }
  }
  JOINT HipLeft
  {
    OFFSET -5.773973 1.199911 -5.730353
    CHANNELS 3 Zrotation Xrotation Yrotation
    JOINT KneeLeft
    {
      OFFSET -1.093364 -29.990077 4.881919
      CHANNELS 3 Zrotation Xrotation Yrotation
      JOINT AnkleLeft
      {
        OFFSET 0.212874 -32.254278 10.150947
        CHANNELS 3 Zrotation Xrotation Yrotation
        JOINT FootLeft
        {
          OFFSET 3.909412 -5.622033 -1.827221
          CHANNELS 3 Zrotation Xrotation Yrotation
          End Site
          {
            OFFSET 0 0 0
          }
        }
      }
    }
  }
  JOINT HipRight
  {
    OFFSET 5.426015 -0.113925 -0.625310
    CHANNELS 3 Zrotation Xrotation Yrotation
    JOINT KneeRight
    {
      OFFSET 0.916723 -27.920137 6.395432
      CHANNELS 3 Zrotation Xrotation Yrotation
      JOINT AnkleRight
      {
        OFFSET -3.509847 -33.739449 8.684541
        CHANNELS 3 Zrotation Xrotation Yrotation
        JOINT FootRight
        {
          OFFSET 3.666253 -3.440424 -5.305035
          CHANNELS 3 Zrotation Xrotation Yrotation
          End Site
          {
            OFFSET 0 0 0
          }
        }
      }
    }
  }
}
MOTION
Frames: 6
Frame Time: 0.033333
23.047790 67.963161 374.483437 0.588041 -2.936083 -18.096464 -0.365954 -0.117364 18.124481 0.343016 0.077433 0.018497 5.218209 -3.529033 0.771258 0.000000 0.000000 0.000000 -2.941648 -0.307625 0.538566 -24.006284 7.100338 7.820402 -3.475540 -0.877982 -13.687105 21.906205 -2.792225 4.514950 0.000000 0.000000 0.000000 0.000000 0.000000 0.000000 83.258059 45.721512 -39.151124 177.079599 -13.377272 -4.085646 66.566689 6.525008 -51.698754 20.746192 -24.249238 7.687026 0.000000 0.000000 0.000000 0.000000 0.000000 0.000000 -4.968014 9.015369 18.022884 1.952979 -5.702859 0.830334 -2.218276 27.676738 19.732024 0.000000 0.000000 0.000000 -5.630511 6.266944 17.979838 2.236719 -2.992950 0.230940 -3.751709 11.085112 18.464303 0.000000 0.000000 0.000000
23.009221 68.001826 374.477408 0.588091 -3.019618 -18.208535 -0.204164 -0.146944 18.238655 0.360742 0.056598 0.024945 4.100035 -2.992832 0.666662 0.000000 0.000000 0.000000 -2.949974 0.115770 0.507451 -23.727185 6.658244 7.361817 -7.178310 -1.329129 -15.856628 22.033553 -3.153776 4.548780 0.000000 0.000000 0.000000 0.000000 0.000000 0.000000 85.664539 46.376655 -41.439525 175.549995 -12.485511 -5.295320 76.425876 2.491637 -61.528751 16.029679 -23.757465 17.119505 0.000000 0.000000 0.000000 0.000000 0.000000 0.000000 -5.292472 9.311475 18.136581 2.751015 -6.285458 1.150903 -1.808361 25.087337 17.160544 0.000000 0.000000 0.000000 -5.592413 6.348318 18.111821 2.150029 -2.976171 0.206688 -6.237952 8.776278 20.699893 0.000000 0.000000 0.000000
22.993780 68.028793 374.475676 0.594108 -3.102282 -18.295205 -0.079295 -0.164486 18.327318 0.343418 0.055659 0.028561 2.999062 -2.606575 0.592539 0.000000 0.000000 0.000000 -2.954735 0.528889 0.490280 -23.379496 6.199672 6.896807 -9.989722 -1.126578 -16.895462 19.365883 -2.562597 4.739764 0.000000 0.000000 0.000000 0.000000 0.000000 0.000000 88.622169 47.204534 -44.240781 173.728204 -11.426727 -7.010826 84.838844 -2.930907 -70.151335 5.701900 -22.577591 24.507079 0.000000 0.000000 0.000000 0.000000 0.000000 0.000000 -5.683469 9.590801 18.222192 3.452521 -6.957280 1.424430 -7.151462 34.310180 25.919674 0.000000 0.000000 0.000000 -5.637317 6.402120 18.204158 2.180010 -2.977530 0.217658 -7.141389 8.093231 21.603824 0.000000 0.000000 0.000000
22.985498 68.041310 374.487270 0.636085 -3.222315 -18.394592 0.016614 -0.163963 18.430741 0.334640 0.042459 0.033247 1.659506 -2.289659 0.532087 0.000000 0.000000 0.000000 -3.062267 0.831639 0.490049 -23.034314 5.890698 6.523366 -12.765382 0.625555 -16.234680 24.828994 -2.321291 5.615549 0.000000 0.000000 0.000000 0.000000 0.000000 0.000000 91.922137 47.980635 -47.396331 171.907471 -10.277302 -8.955052 89.565130 -9.679488 -74.589347 -5.152965 -22.763593 27.977097 0.000000 0.000000 0.000000 0.000000 0.000000 0.000000 -6.288323 9.974300 18.323478 4.499128 -7.688939 1.843055 -11.356707 39.968218 31.983689 0.000000 0.000000 0.000000 -5.773760 6.512968 18.313116 2.263581 -3.034837 0.244432 -8.278611 5.262698 21.164060 0.000000 0.000000 0.000000
22.993167 68.041629 374.505070 0.681157 -3.352806 -18.503498 0.084442 -0.155770 18.543616 0.313099 0.020797 0.036477 0.383235 -1.998780 0.487443 0.000000 0.000000 0.000000 -3.152984 1.063282 0.495016 -22.767121 5.722748 6.297210 -14.701813 2.447326 -14.975546 28.545056 -1.402823 6.703585 0.000000 0.000000 0.000000 0.000000 0.000000 0.000000 95.181734 48.573094 -50.480684 170.326651 -9.197702 -10.879098 91.518953 -14.457290 -76.367874 -12.414407 -26.040199 30.712948 0.000000 0.000000 0.000000 0.000000 0.000000 0.000000 -6.807534 10.256583 18.438402 3.618067 -7.370771 1.397193 -5.102664 33.646903 24.792150 0.000000 0.000000 0.000000 -5.972659 6.625261 18.425516 2.430783 -3.105093 0.295587 -13.184810 0.598356 25.855043 0.000000 0.000000 0.000000
23.016828 68.033555 374.522739 0.727609 -3.486858 -18.559365 0.104481 -0.115509 18.603067 0.265310 0.017088 0.037166 -0.731021 -1.938533 0.472260 0.000000 0.000000 0.000000 -3.177594 1.107974 0.496697 -22.633744 5.794457 6.316089 -16.355999 4.766796 -12.979344 31.754216 -2.368974 6.964290 0.000000 0.000000 0.000000 0.000000 0.000000 0.000000 98.907019 49.024677 -53.842038 168.793736 -8.046626 -13.197963 91.599734 -17.960114 -76.193792 -16.985456 -29.701793 32.529724 0.000000 0.000000 0.000000 0.000000 0.000000 0.000000 -7.405915 10.575178 18.501461 4.005146 -7.885640 1.509385 -0.532016 24.855797 16.286052 0.000000 0.000000 0.000000 -6.212797 6.732370 18.478577 2.649476 -3.139235 0.357462 -16.005555 -2.318373 28.599135 0.000000 0.000000 0.000000
